# This file uses centimeters as units for non-parametric coordinates.

mtllib Menu.mtl
v -5.000000 4.810860 0.420743
v 5.000000 4.810860 0.420743
v -5.000000 8.728526 -2.686011
v 5.000000 8.728526 -2.686011
vt 0.000000 0.265939
vt 1.000000 0.265939
vt 0.000000 0.765939
vt 1.000000 0.765939
vn 0.000000 0.621350 0.783533
vn 0.000000 0.621350 0.783533
vn 0.000000 0.621350 0.783533
vn 0.000000 0.621350 0.783533
g pPlane1
usemtl phong1SG
f 1/1/1 2/2/2 3/3/3
f 3/3/3 2/2/2 4/4/4
v -5.000000 8.604496 -2.690964
v 5.000000 8.604498 -2.690960
v -5.000000 13.604442 -2.667569
v 5.000000 13.604440 -2.667567
vt 0.000000 0.287429
vt 1.000000 0.287429
vt 0.000000 0.787428
vt 1.000000 0.787428
vn -0.000000 -0.004679 0.999989
vn -0.000000 -0.004679 0.999989
vn -0.000000 -0.004679 0.999989
vn -0.000000 -0.004679 0.999989
g pPlane2
usemtl phong2SG
f 5/5/5 6/6/6 7/7/7
f 7/7/7 6/6/6 8/8/8
v -4.999854 -0.179776 0.433992
v 5.000146 -0.179776 0.433992
v -4.999854 4.820123 0.402162
v 5.000146 4.820123 0.402162
vt 0.000000 0.308919
vt 1.000000 0.308919
vt 0.000000 0.808918
vt 1.000000 0.808918
vn 0.000000 0.006366 0.999980
vn 0.000000 0.006366 0.999980
vn 0.000000 0.006366 0.999980
vn 0.000000 0.006366 0.999980
g pPlane3
usemtl phong3SG
f 9/9/9 10/10/10 11/11/11
f 11/11/11 10/10/10 12/12/12
