# This file uses centimeters as units for non-parametric coordinates.

mtllib projectileG.mtl
v 0.500000 0.000000 -0.346410
v 0.500000 -0.346410 -0.000000
v 0.500000 -0.000000 0.346410
v 0.500000 0.346410 0.000000
v -0.500000 0.000000 -0.346410
v -0.500000 -0.346410 -0.000000
v -0.500000 -0.000000 0.346410
v -0.500000 0.346410 0.000000
v 1.000000 -0.000000 0.000000
v -1.000000 0.000000 0.000000
vt 0.000000 0.333333
vt 0.250000 0.333333
vt 0.500000 0.333333
vt 0.750000 0.333333
vt 1.000000 0.333333
vt 0.000000 0.666667
vt 0.250000 0.666667
vt 0.500000 0.666667
vt 0.750000 0.666667
vt 1.000000 0.666667
vt 0.125000 0.000000
vt 0.375000 0.000000
vt 0.625000 0.000000
vt 0.875000 0.000000
vt 0.125000 1.000000
vt 0.375000 1.000000
vt 0.625000 1.000000
vt 0.875000 1.000000
vn -0.000000 -0.707107 -0.707107
vn -0.000000 -0.707107 -0.707107
vn -0.000000 -0.707107 -0.707107
vn -0.000000 -0.707107 -0.707107
vn -0.000000 -0.707107 0.707107
vn -0.000000 -0.707107 0.707107
vn -0.000000 -0.707107 0.707107
vn -0.000000 -0.707107 0.707107
vn 0.000000 0.707107 0.707107
vn 0.000000 0.707107 0.707107
vn 0.000000 0.707107 0.707107
vn 0.000000 0.707107 0.707107
vn 0.000000 0.707107 -0.707107
vn 0.000000 0.707107 -0.707107
vn 0.000000 0.707107 -0.707107
vn 0.000000 0.707107 -0.707107
vn 0.439941 -0.635000 -0.635001
vn 0.439941 -0.635000 -0.635001
vn 0.439941 -0.635000 -0.635001
vn 0.439941 -0.635001 0.635001
vn 0.439941 -0.635001 0.635001
vn 0.439941 -0.635001 0.635001
vn 0.439941 0.635001 0.635001
vn 0.439941 0.635001 0.635001
vn 0.439941 0.635001 0.635001
vn 0.439941 0.635001 -0.635001
vn 0.439941 0.635001 -0.635001
vn 0.439941 0.635001 -0.635001
vn -0.439941 -0.635000 -0.635001
vn -0.439941 -0.635000 -0.635001
vn -0.439941 -0.635000 -0.635001
vn -0.439941 -0.635001 0.635001
vn -0.439941 -0.635001 0.635001
vn -0.439941 -0.635001 0.635001
vn -0.439941 0.635001 0.635001
vn -0.439941 0.635001 0.635001
vn -0.439941 0.635001 0.635001
vn -0.439941 0.635001 -0.635001
vn -0.439941 0.635001 -0.635001
vn -0.439941 0.635001 -0.635001
g pSphere1
usemtl projectileRed
f 1/1/1 2/2/2 5/6/3
f 5/6/3 2/2/2 6/7/4
f 2/2/5 3/3/6 6/7/7
f 6/7/7 3/3/6 7/8/8
f 3/3/9 4/4/10 7/8/11
f 7/8/11 4/4/10 8/9/12
f 4/4/13 1/5/14 8/9/15
f 8/9/15 1/5/14 5/10/16
f 2/2/17 1/1/18 9/11/19
f 3/3/20 2/2/21 9/12/22
f 4/4/23 3/3/24 9/13/25
f 1/5/26 4/4/27 9/14/28
f 5/6/29 6/7/30 10/15/31
f 6/7/32 7/8/33 10/16/34
f 7/8/35 8/9/36 10/17/37
f 8/9/38 5/10/39 10/18/40
v 0.500000 0.000000 -0.346410
v 0.500000 -0.346410 -0.000000
v 0.500000 -0.000000 0.346410
v 0.500000 0.346410 0.000000
v -0.500000 0.000000 -0.346410
v -0.500000 -0.346410 -0.000000
v -0.500000 -0.000000 0.346410
v -0.500000 0.346410 0.000000
v 1.000000 -0.000000 0.000000
v -1.000000 0.000000 0.000000
vt 0.000000 0.333333
vt 0.250000 0.333333
vt 0.500000 0.333333
vt 0.750000 0.333333
vt 1.000000 0.333333
vt 0.000000 0.666667
vt 0.250000 0.666667
vt 0.500000 0.666667
vt 0.750000 0.666667
vt 1.000000 0.666667
vt 0.125000 0.000000
vt 0.375000 0.000000
vt 0.625000 0.000000
vt 0.875000 0.000000
vt 0.125000 1.000000
vt 0.375000 1.000000
vt 0.625000 1.000000
vt 0.875000 1.000000
vn -0.000000 -0.707107 -0.707107
vn -0.000000 -0.707107 -0.707107
vn -0.000000 -0.707107 -0.707107
vn -0.000000 -0.707107 -0.707107
vn -0.000000 -0.707107 0.707107
vn -0.000000 -0.707107 0.707107
vn -0.000000 -0.707107 0.707107
vn -0.000000 -0.707107 0.707107
vn 0.000000 0.707107 0.707107
vn 0.000000 0.707107 0.707107
vn 0.000000 0.707107 0.707107
vn 0.000000 0.707107 0.707107
vn 0.000000 0.707107 -0.707107
vn 0.000000 0.707107 -0.707107
vn 0.000000 0.707107 -0.707107
vn 0.000000 0.707107 -0.707107
vn 0.439941 -0.635000 -0.635001
vn 0.439941 -0.635000 -0.635001
vn 0.439941 -0.635000 -0.635001
vn 0.439941 -0.635001 0.635001
vn 0.439941 -0.635001 0.635001
vn 0.439941 -0.635001 0.635001
vn 0.439941 0.635001 0.635001
vn 0.439941 0.635001 0.635001
vn 0.439941 0.635001 0.635001
vn 0.439941 0.635001 -0.635001
vn 0.439941 0.635001 -0.635001
vn 0.439941 0.635001 -0.635001
vn -0.439941 -0.635000 -0.635001
vn -0.439941 -0.635000 -0.635001
vn -0.439941 -0.635000 -0.635001
vn -0.439941 -0.635001 0.635001
vn -0.439941 -0.635001 0.635001
vn -0.439941 -0.635001 0.635001
vn -0.439941 0.635001 0.635001
vn -0.439941 0.635001 0.635001
vn -0.439941 0.635001 0.635001
vn -0.439941 0.635001 -0.635001
vn -0.439941 0.635001 -0.635001
vn -0.439941 0.635001 -0.635001
f 11/19/41 12/20/42 15/24/43
f 15/24/43 12/20/42 16/25/44
f 12/20/45 13/21/46 16/25/47
f 16/25/47 13/21/46 17/26/48
f 13/21/49 14/22/50 17/26/51
f 17/26/51 14/22/50 18/27/52
f 14/22/53 11/23/54 18/27/55
f 18/27/55 11/23/54 15/28/56
f 12/20/57 11/19/58 19/29/59
f 13/21/60 12/20/61 19/30/62
f 14/22/63 13/21/64 19/31/65
f 11/23/66 14/22/67 19/32/68
f 15/24/69 16/25/70 20/33/71
f 16/25/72 17/26/73 20/34/74
f 17/26/75 18/27/76 20/35/77
f 18/27/78 15/28/79 20/36/80
