# This file uses centimeters as units for non-parametric coordinates.

mtllib Stage1NoPlanet.mtl
v -45.000000 -0.000000 45.000000
v 45.000000 -0.000000 45.000000
v -45.000000 0.000000 -45.000000
v 45.000000 0.000000 -45.000000
vt -0.002698 0.291367
vt 0.997302 0.291367
vt -0.002698 1.291367
vt 0.997302 1.291367
vn 0.000000 1.000000 0.000000
vn 0.000000 1.000000 0.000000
vn 0.000000 1.000000 0.000000
vn 0.000000 1.000000 0.000000
g pPlane1
usemtl phong1SG
f 1/1/1 2/2/2 3/3/3
f 3/3/3 2/2/2 4/4/4
v -98.493301 -25.387245 110.000000
v 121.506699 -25.387245 110.000000
v -98.493301 -25.387245 -110.000000
v 121.506699 -25.387245 -110.000000
vt 0.000000 0.000000
vt 1.000000 0.000000
vt 0.000000 1.000000
vt 1.000000 1.000000
vn 0.000000 1.000000 0.000000
vn 0.000000 1.000000 0.000000
vn 0.000000 1.000000 0.000000
vn 0.000000 1.000000 0.000000
g pPlane2
usemtl phong2SG
f 5/5/5 6/6/6 7/7/7
f 7/7/7 6/6/6 8/8/8
v 45.000000 0.000000 -44.500000
v 45.000000 0.000000 -45.500000
v 45.000000 9.000000 -44.500000
v 45.000000 9.000000 -45.500000
v -45.000000 9.000000 -44.500000
v -45.000000 9.000000 -45.500000
v -45.000000 0.000000 -44.500000
v -45.000000 0.000000 -45.500000
vt 0.148806 7.478446
vt 0.148806 0.013698
vt 0.343081 0.013698
vt 0.343081 7.478446
vt 0.389591 7.478446
vt 0.389591 0.013698
vt 0.583867 0.013698
vt 0.583867 7.478446
vt 0.013698 0.013698
vt 0.036750 0.013698
vt 0.036750 7.478445
vt 0.013698 7.478445
vt 0.081921 0.013698
vt 0.104972 0.013698
vt 0.104972 7.478446
vt 0.081921 7.478446
vt 0.630376 0.013698
vt 0.653428 0.013698
vt 0.653428 0.207974
vt 0.630376 0.207974
vt 0.697261 0.013698
vt 0.720313 0.013698
vt 0.720313 0.207974
vt 0.697261 0.207974
vn 1.000000 0.000000 0.000000
vn 1.000000 0.000000 0.000000
vn 1.000000 0.000000 0.000000
vn 1.000000 0.000000 0.000000
vn 0.000000 1.000000 0.000000
vn 0.000000 1.000000 0.000000
vn 0.000000 1.000000 0.000000
vn 0.000000 1.000000 0.000000
vn -1.000000 0.000000 -0.000000
vn -1.000000 0.000000 -0.000000
vn -1.000000 0.000000 -0.000000
vn -1.000000 0.000000 -0.000000
vn 0.000000 -1.000000 0.000000
vn 0.000000 -1.000000 0.000000
vn 0.000000 -1.000000 0.000000
vn 0.000000 -1.000000 0.000000
vn 0.000000 0.000000 -1.000000
vn 0.000000 0.000000 -1.000000
vn 0.000000 0.000000 -1.000000
vn 0.000000 0.000000 -1.000000
vn -0.000000 0.000000 1.000000
vn -0.000000 0.000000 1.000000
vn -0.000000 0.000000 1.000000
vn -0.000000 0.000000 1.000000
g pasted__pCube5 group1
usemtl pasted__phong5SG
f 9/25/9 10/26/10 11/28/11
f 11/28/11 10/26/10 12/27/12
f 11/17/13 12/18/14 13/20/15
f 13/20/15 12/18/14 14/19/16
f 13/29/17 14/30/18 15/32/19
f 15/32/19 14/30/18 16/31/20
f 15/21/21 16/22/22 9/24/23
f 9/24/23 16/22/22 10/23/24
f 10/9/25 16/10/26 12/12/27
f 12/12/27 16/10/26 14/11/28
f 15/13/29 9/14/30 13/16/31
f 13/16/31 9/14/30 11/15/32
v -45.500000 0.000000 45.000000
v -44.500000 0.000000 45.000000
v -45.500000 9.000000 45.000000
v -44.500000 9.000000 45.000000
v -45.500000 9.000000 -45.000000
v -44.500000 9.000000 -45.000000
v -45.500000 0.000000 -45.000000
v -44.500000 0.000000 -45.000000
vt 0.148806 7.478446
vt 0.148806 0.013698
vt 0.343081 0.013698
vt 0.343081 7.478446
vt 0.389591 7.478446
vt 0.389591 0.013698
vt 0.583867 0.013698
vt 0.583867 7.478446
vt 0.013698 0.013698
vt 0.036750 0.013698
vt 0.036750 7.478445
vt 0.013698 7.478445
vt 0.081921 0.013698
vt 0.104972 0.013698
vt 0.104972 7.478446
vt 0.081921 7.478446
vt 0.630376 0.013698
vt 0.653428 0.013698
vt 0.653428 0.207974
vt 0.630376 0.207974
vt 0.697261 0.013698
vt 0.720313 0.013698
vt 0.720313 0.207974
vt 0.697261 0.207974
vn 0.000000 0.000000 1.000000
vn 0.000000 0.000000 1.000000
vn 0.000000 0.000000 1.000000
vn 0.000000 0.000000 1.000000
vn 0.000000 1.000000 0.000000
vn 0.000000 1.000000 0.000000
vn 0.000000 1.000000 0.000000
vn 0.000000 1.000000 0.000000
vn 0.000000 0.000000 -1.000000
vn 0.000000 0.000000 -1.000000
vn 0.000000 0.000000 -1.000000
vn 0.000000 0.000000 -1.000000
vn 0.000000 -1.000000 0.000000
vn 0.000000 -1.000000 0.000000
vn 0.000000 -1.000000 0.000000
vn 0.000000 -1.000000 0.000000
vn 1.000000 0.000000 0.000000
vn 1.000000 0.000000 0.000000
vn 1.000000 0.000000 0.000000
vn 1.000000 0.000000 0.000000
vn -1.000000 0.000000 0.000000
vn -1.000000 0.000000 0.000000
vn -1.000000 0.000000 0.000000
vn -1.000000 0.000000 0.000000
g pasted__pasted__pCube5 pasted__group1 group2
usemtl pasted__pasted__phong5SG
f 17/49/33 18/50/34 19/52/35
f 19/52/35 18/50/34 20/51/36
f 19/41/37 20/42/38 21/44/39
f 21/44/39 20/42/38 22/43/40
f 21/53/41 22/54/42 23/56/43
f 23/56/43 22/54/42 24/55/44
f 23/45/45 24/46/46 17/48/47
f 17/48/47 24/46/46 18/47/48
f 18/33/49 24/34/50 20/36/51
f 20/36/51 24/34/50 22/35/52
f 23/37/53 17/38/54 21/40/55
f 21/40/55 17/38/54 19/39/56
v 45.000000 0.000000 45.500000
v 45.000000 0.000000 44.500000
v 45.000000 9.000000 45.500000
v 45.000000 9.000000 44.500000
v -45.000000 9.000000 45.500000
v -45.000000 9.000000 44.500000
v -45.000000 0.000000 45.500000
v -45.000000 0.000000 44.500000
vt 0.148806 7.478446
vt 0.148806 0.013698
vt 0.343081 0.013698
vt 0.343081 7.478446
vt 0.389591 7.478446
vt 0.389591 0.013698
vt 0.583867 0.013698
vt 0.583867 7.478446
vt 0.013698 0.013698
vt 0.036750 0.013698
vt 0.036750 7.478445
vt 0.013698 7.478445
vt 0.081921 0.013698
vt 0.104972 0.013698
vt 0.104972 7.478446
vt 0.081921 7.478446
vt 0.630376 0.013698
vt 0.653428 0.013698
vt 0.653428 0.207974
vt 0.630376 0.207974
vt 0.697261 0.013698
vt 0.720313 0.013698
vt 0.720313 0.207974
vt 0.697261 0.207974
vn 1.000000 0.000000 0.000000
vn 1.000000 0.000000 0.000000
vn 1.000000 0.000000 0.000000
vn 1.000000 0.000000 0.000000
vn 0.000000 1.000000 0.000000
vn 0.000000 1.000000 0.000000
vn 0.000000 1.000000 0.000000
vn 0.000000 1.000000 0.000000
vn -1.000000 0.000000 -0.000000
vn -1.000000 0.000000 -0.000000
vn -1.000000 0.000000 -0.000000
vn -1.000000 0.000000 -0.000000
vn 0.000000 -1.000000 0.000000
vn 0.000000 -1.000000 0.000000
vn 0.000000 -1.000000 0.000000
vn 0.000000 -1.000000 0.000000
vn 0.000000 0.000000 -1.000000
vn 0.000000 0.000000 -1.000000
vn 0.000000 0.000000 -1.000000
vn 0.000000 0.000000 -1.000000
vn -0.000000 0.000000 1.000000
vn -0.000000 0.000000 1.000000
vn -0.000000 0.000000 1.000000
vn -0.000000 0.000000 1.000000
g pasted__pasted__pCube5 pasted__group1 group3
usemtl pasted__pasted__phong5SG1
f 25/73/57 26/74/58 27/76/59
f 27/76/59 26/74/58 28/75/60
f 27/65/61 28/66/62 29/68/63
f 29/68/63 28/66/62 30/67/64
f 29/77/65 30/78/66 31/80/67
f 31/80/67 30/78/66 32/79/68
f 31/69/69 32/70/70 25/72/71
f 25/72/71 32/70/70 26/71/72
f 26/57/73 32/58/74 28/60/75
f 28/60/75 32/58/74 30/59/76
f 31/61/77 25/62/78 29/64/79
f 29/64/79 25/62/78 27/63/80
v 44.500000 0.000000 45.000000
v 45.500000 0.000000 45.000000
v 44.500000 9.000000 45.000000
v 45.500000 9.000000 45.000000
v 44.500000 9.000000 -45.000000
v 45.500000 9.000000 -45.000000
v 44.500000 0.000000 -45.000000
v 45.500000 0.000000 -45.000000
vt 0.148806 7.478446
vt 0.148806 0.013698
vt 0.343081 0.013698
vt 0.343081 7.478446
vt 0.389591 7.478446
vt 0.389591 0.013698
vt 0.583867 0.013698
vt 0.583867 7.478446
vt 0.013698 0.013698
vt 0.036750 0.013698
vt 0.036750 7.478445
vt 0.013698 7.478445
vt 0.081921 0.013698
vt 0.104972 0.013698
vt 0.104972 7.478446
vt 0.081921 7.478446
vt 0.630376 0.013698
vt 0.653428 0.013698
vt 0.653428 0.207974
vt 0.630376 0.207974
vt 0.697261 0.013698
vt 0.720313 0.013698
vt 0.720313 0.207974
vt 0.697261 0.207974
vn 0.000000 0.000000 1.000000
vn 0.000000 0.000000 1.000000
vn 0.000000 0.000000 1.000000
vn 0.000000 0.000000 1.000000
vn 0.000000 1.000000 0.000000
vn 0.000000 1.000000 0.000000
vn 0.000000 1.000000 0.000000
vn 0.000000 1.000000 0.000000
vn 0.000000 0.000000 -1.000000
vn 0.000000 0.000000 -1.000000
vn 0.000000 0.000000 -1.000000
vn 0.000000 0.000000 -1.000000
vn 0.000000 -1.000000 0.000000
vn 0.000000 -1.000000 0.000000
vn 0.000000 -1.000000 0.000000
vn 0.000000 -1.000000 0.000000
vn 1.000000 0.000000 0.000000
vn 1.000000 0.000000 0.000000
vn 1.000000 0.000000 0.000000
vn 1.000000 0.000000 0.000000
vn -1.000000 0.000000 0.000000
vn -1.000000 0.000000 0.000000
vn -1.000000 0.000000 0.000000
vn -1.000000 0.000000 0.000000
g pasted__pasted__pasted__pCube5 pasted__pasted__group1 pasted__group2 group4
usemtl pasted__pasted__pasted__phong5SG
f 33/97/81 34/98/82 35/100/83
f 35/100/83 34/98/82 36/99/84
f 35/89/85 36/90/86 37/92/87
f 37/92/87 36/90/86 38/91/88
f 37/101/89 38/102/90 39/104/91
f 39/104/91 38/102/90 40/103/92
f 39/93/93 40/94/94 33/96/95
f 33/96/95 40/94/94 34/95/96
f 34/81/97 40/82/98 36/84/99
f 36/84/99 40/82/98 38/83/100
f 39/85/101 33/86/102 37/88/103
f 37/88/103 33/86/102 35/87/104
